<svg xmlns="http://www.w3.org/2000/svg" width="167.335" height="27.181" viewBox="0 0 167.335 27.181">
    <g id="Group_297" data-name="Group 297" transform="translate(-1572.958 -4109.065)">
        <g id="Group_296" data-name="Group 296" transform="translate(1621.451 4109.065)">
            <path id="Path_571" data-name="Path 571" d="M560.82,486.118h-2.554v-4.279h2.554v-.766a5.221,5.221,0,0,1,5.524-5.428,7.042,7.042,0,0,1,3.257.7l-.894,3.352a2.531,2.531,0,0,0-1.277-.319,1.615,1.615,0,0,0-1.692,1.82v.639h3.129v4.279h-3.129v11.143H560.82Z" transform="translate(-558.266 -474.272)" fill="#fff"/>
            <path id="Path_572" data-name="Path 572" d="M632.464,511.658h4.917v1.947a6.722,6.722,0,0,1,4.821-2.331v4.758a3.966,3.966,0,0,0-1.213-.16,4.9,4.9,0,0,0-3.608,1.437v9.77h-4.917Z" transform="translate(-620.363 -504.091)" fill="#fff"/>
            <path id="Path_573" data-name="Path 573" d="M703.123,511.275c4.566,0,7.887,3.352,7.887,8.589v1.054H700.026c.287,1.437,1.628,2.746,3.927,2.746a6.1,6.1,0,0,0,3.768-1.309l2.075,3.065a10.06,10.06,0,0,1-6.45,2.043c-4.757,0-8.429-3.1-8.429-8.11A7.959,7.959,0,0,1,703.123,511.275Zm-3.161,6.45h6.354a2.964,2.964,0,0,0-3.193-2.65A3.047,3.047,0,0,0,699.962,517.725Z" transform="translate(-672.63 -504.091)" fill="#fff"/>
            <path id="Path_574" data-name="Path 574" d="M798.763,521.716a9.617,9.617,0,0,0,5.428,2.044c1.469,0,2.075-.479,2.075-1.15,0-.8-1.054-1.086-2.65-1.341-2.618-.447-6.322-.99-6.322-4.917,0-2.714,2.331-5.077,6.609-5.077a10.859,10.859,0,0,1,6.45,2.043l-1.884,3.257a6.894,6.894,0,0,0-4.534-1.692c-1.149,0-1.948.383-1.948,1.053,0,.7.83.958,2.458,1.245,2.618.447,6.514,1.086,6.514,5.172,0,2.938-2.586,5.109-7.025,5.109a11.5,11.5,0,0,1-7.216-2.363Z" transform="translate(-757.829 -504.091)" fill="#fff"/>
            <path id="Path_575" data-name="Path 575" d="M903.285,489.928c0-1.884-.99-2.491-2.554-2.491a3.789,3.789,0,0,0-2.969,1.5V498.9h-4.917V477.6h4.917v7.758a6.971,6.971,0,0,1,5.332-2.267c3.512,0,5.109,1.98,5.109,4.821V498.9h-4.917Z" transform="translate(-838.276 -475.911)" fill="#fff"/>
            <path id="Path_576" data-name="Path 576" d="M999.542,470.037a2.81,2.81,0,1,1,2.81,2.81A2.794,2.794,0,0,1,999.542,470.037Zm.352,4.757h4.917v15.422h-4.917Z" transform="translate(-927.572 -467.227)" fill="#fff"/>
            <path id="Path_577" data-name="Path 577" d="M1057.555,518.172a2.229,2.229,0,0,0-2.523-2.554,3.805,3.805,0,0,0-3,1.5v9.962h-4.917V511.658h4.917v1.884a6.971,6.971,0,0,1,5.332-2.267c3.512,0,5.109,2.043,5.109,4.885v10.92h-4.917Z" transform="translate(-967.385 -504.091)" fill="#fff"/>
            <path id="Path_578" data-name="Path 578" d="M1159.694,511.275c3.321,0,5.4,1.469,6.322,2.841l-3.193,2.97a3.371,3.371,0,0,0-2.906-1.469,3.753,3.753,0,1,0,2.906,6l3.193,3a7.475,7.475,0,0,1-6.322,2.841c-4.821,0-8.429-3.257-8.429-8.11C1151.265,514.532,1154.873,511.275,1159.694,511.275Z" transform="translate(-1054.549 -504.091)" fill="#fff"/>
            <path id="Path_579" data-name="Path 579" d="M1253.134,573.726a3,3,0,1,1-3,3A3.04,3.04,0,0,1,1253.134,573.726Z" transform="translate(-1137.292 -556.357)" fill="#fff"/>
        </g>
        <text id="MADE_BY" data-name="MADE BY" transform="translate(1572.958 4132.246)" fill="#fff" font-size="10" font-family="Poppins-Light, Poppins" font-weight="300" opacity="0.652"><tspan x="0" y="0">MADE BY</tspan></text>
    </g>
</svg>
